<?xml version="1.0" encoding="UTF-8"?>
<svg width="1920px" height="970px" viewBox="0 0 1920 970" version="1.1" xmlns="http://www.w3.org/2000/svg" xmlns:xlink="http://www.w3.org/1999/xlink">
    <!-- Generator: Sketch 64 (93537) - https://sketch.com -->
    <title>home screen copy 2</title>
    <desc>Created with Sketch.</desc>
    <defs>
        <rect id="path-1" x="0" y="0" width="1920" height="970"></rect>
        <linearGradient x1="50%" y1="0%" x2="50%" y2="100%" id="linearGradient-3">
            <stop stop-color="#f9bf43" offset="0%"></stop>
            <stop stop-color="#c18606" offset="100%"></stop>
        </linearGradient>
        <path d="M725.616048,472.734438 L183.636822,1411.47228 C899.305038,1924.36309 1648.07507,1939.4499 2429.94693,1456.73272 L1847.98029,1120.7333 L725.616048,472.734438 Z" id="path-4"></path>
        <linearGradient x1="0%" y1="35.4238537%" x2="101.999998%" y2="64.867669%" id="linearGradient-6">
            <stop stop-color="#f9bf43" offset="0%"></stop>
            <stop stop-color="#c18606" offset="100%"></stop>
        </linearGradient>
        <path d="M478.426189,462.434492 L-125.586505,1410.36628 C638.34633,1901.12877 1452.67966,1905.15151 2317.4135,1422.43449 L1618.4611,1046.57789 L478.426189,462.434492 Z" id="path-7"></path>
        <linearGradient x1="100%" y1="50%" x2="0%" y2="50%" id="linearGradient-9">
            <stop stop-color="#FE9A8B" offset="0%"></stop>
            <stop stop-color="#FD868C" offset="40.8502073%"></stop>
            <stop stop-color="#F9748F" offset="73.1505102%"></stop>
            <stop stop-color="#F78CA0" offset="100%"></stop>
        </linearGradient>
        <linearGradient x1="100%" y1="50%" x2="0%" y2="50%" id="linearGradient-10">
            <stop stop-color="#FE9A8B" offset="0%"></stop>
            <stop stop-color="#FD868C" offset="40.8502073%"></stop>
            <stop stop-color="#F9748F" offset="73.1505102%"></stop>
            <stop stop-color="#F78CA0" offset="100%"></stop>
        </linearGradient>
        <linearGradient x1="-9.82247488%" y1="62.2622151%" x2="141.636148%" y2="56.4835302%" id="linearGradient-11">
            <stop stop-color="#5535B8" offset="0%"></stop>
            <stop stop-color="#F78CA0" offset="100%"></stop>
        </linearGradient>
        <linearGradient x1="188.119211%" y1="21.5327795%" x2="-85.2192282%" y2="93.3852505%" id="linearGradient-12">
            <stop stop-color="#c18606" offset="0%"></stop>
            <stop stop-color="#8b6004" offset="100%"></stop>
        </linearGradient>
    </defs>
    <g id="Devima-Solutions_v3" stroke="none" stroke-width="1" fill="none" fill-rule="evenodd">
        <g id="home-screen-copy-2">
            <g id="Fill-5-Copy" transform="translate(0.000000, 0.002783)">
                <mask id="mask-2" fill="white">
                    <use xlink:href="#path-1"></use>
                </mask>
                <use id="Mask" fill="#FFFFFF" xlink:href="#path-1"></use>
                <g id="Fill-5" mask="url(#mask-2)">
                    <g transform="translate(-226.000000, -1014.476809)">
                        <mask id="mask-5" fill="white">
                            <use xlink:href="#path-4"></use>
                        </mask>
                        <use id="Mask-Copy-6" stroke="none" fill="url(#linearGradient-3)" fill-rule="evenodd" opacity="0.09" transform="translate(1306.791875, 1140.266428) rotate(-30.000000) translate(-1306.791875, -1140.266428) " xlink:href="#path-4"></use>
                        <mask id="mask-8" fill="white">
                            <use xlink:href="#path-7"></use>
                        </mask>
                        <use id="Mask-Copy-7" stroke="none" fill="url(#linearGradient-6)" fill-rule="evenodd" transform="translate(1095.913495, 1121.957315) rotate(-30.000000) translate(-1095.913495, -1121.957315) " xlink:href="#path-7"></use>
                        <path d="M1276.46166,1310.43636 C1262.29859,1308.43327 1257.89791,1297.39361 1266.70226,1285.95366 L1305.55471,1235.37182 C1314.32012,1223.94782 1328.78739,1205.1963 1337.54507,1193.79083 L1376.37928,1143.20109 C1385.19416,1131.78756 1396.78531,1133.40001 1402.16509,1146.89587 L1469.20178,1315.06587 C1474.59735,1328.60134 1467.38055,1337.96252 1453.19643,1335.90661 L1390.60065,1326.88744 C1376.48424,1324.84988 1353.22613,1321.54849 1339.07569,1319.46342 L1276.46166,1310.43636 Z" id="Fill-5-Copy-11" stroke="none" fill="url(#linearGradient-9)" fill-rule="evenodd" style="mix-blend-mode: color-burn;" opacity="0.125849185" mask="url(#mask-8)" transform="translate(1366.577754, 1235.895709) rotate(-60.000000) translate(-1366.577754, -1235.895709) "></path>
                        <path d="M1366.48736,1172.85452 C1358.32765,1171.70912 1355.79544,1165.37446 1360.87167,1158.80613 L1383.27247,1129.76417 C1388.32626,1123.205 1396.6675,1112.43865 1401.71683,1105.89011 L1424.10712,1076.84363 C1429.18941,1070.29045 1435.86738,1071.21241 1438.96297,1078.95646 L1477.53672,1175.4539 C1480.6414,1183.22067 1476.48049,1188.59547 1468.30866,1187.41977 L1432.24567,1182.26213 C1424.11286,1181.09694 1410.71327,1179.20913 1402.56086,1178.01668 L1366.48736,1172.85452 Z" id="Fill-5-Copy-12" stroke="none" fill="url(#linearGradient-10)" fill-rule="evenodd" style="mix-blend-mode: color-burn;" opacity="0.125849185" mask="url(#mask-8)" transform="translate(1418.409391, 1130.029732) rotate(-195.000000) translate(-1418.409391, -1130.029732) "></path>
                    </g>
                </g>
                <path d="M361.236475,467.283668 L526.281566,754.880058 C530.404973,762.065228 527.922924,771.232641 520.737755,775.356048 C518.364064,776.718255 515.662927,777.405094 512.926861,777.342184 L181.083819,769.712109 C172.801737,769.521679 166.242157,762.653351 166.432587,754.371268 C166.492028,751.786081 167.218775,749.260164 168.542293,747.038672 L335.340244,467.072357 C339.580355,459.955433 348.787051,457.623315 355.903975,461.863427 C358.117499,463.182197 359.954002,465.048918 361.236475,467.283668 Z" id="Triangle" fill="url(#linearGradient-11)" opacity="0.19" mask="url(#mask-2)" transform="translate(347.454493, 611.494853) rotate(-23.000000) translate(-347.454493, -611.494853) "></path>
                <path d="M244.142468,587.273957 L364.267895,812.257681 C368.169766,819.565523 365.408682,828.652791 358.10084,832.554662 C355.816128,833.774537 353.254481,834.382054 350.66529,834.318066 L109.138645,828.349136 C100.856903,828.144467 94.3091414,821.26487 94.5138109,812.983128 C94.5735709,810.565001 95.2172355,808.197191 96.3899199,806.081601 L217.791137,587.066807 C221.807415,579.821211 230.936968,577.203331 238.182564,581.219608 C240.711134,582.62121 242.780792,584.723665 244.142468,587.273957 Z" id="Triangle-Copy" fill="url(#linearGradient-12)" opacity="0.6" mask="url(#mask-2)" transform="translate(230.385972, 698.953710) rotate(-2.000000) translate(-230.385972, -698.953710) "></path>
            </g>
        </g>
    </g>
</svg>