<?xml version="1.0" encoding="utf-8"?>
<!-- Generator: Adobe Illustrator 25.1.0, SVG Export Plug-In . SVG Version: 6.00 Build 0)  -->
<svg version="1.1" id="Слой_1" xmlns="http://www.w3.org/2000/svg" xmlns:xlink="http://www.w3.org/1999/xlink" x="0px" y="0px"
	 viewBox="0 0 112 35" style="enable-background:new 0 0 112 35;" xml:space="preserve">
<style type="text/css">
	.st0{fill:#FEB633;}
</style>
<g>
	<path class="st0" d="M0.56,1.3c1.94-0.39,5.01-0.69,8.13-0.69c4.45,0,7.31,0.74,9.46,2.41c1.79,1.28,2.86,3.24,2.86,5.85
		c0,3.19-2.2,6-5.83,7.27v0.1c3.27,0.79,7.11,3.39,7.11,8.31c0,2.85-1.18,5.01-2.92,6.63c-2.4,2.11-6.29,3.1-11.92,3.1
		c-3.07,0-5.42-0.2-6.9-0.39V1.3z M5.01,14.87h4.04c4.7,0,7.47-2.36,7.47-5.55c0-3.88-3.07-5.41-7.57-5.41
		c-2.05,0-3.22,0.15-3.94,0.29V14.87z M5.01,30.74c0.87,0.15,2.15,0.2,3.73,0.2c4.6,0,8.85-1.62,8.85-6.44
		c0-4.52-4.04-6.39-8.9-6.39H5.01V30.74z"/>
	<path class="st0" d="M32.73,0.86v13.86H49.4V0.86h4.5v33.13h-4.5V18.45H32.73v15.53h-4.45V0.86H32.73z"/>
</g>
<g>
	<path class="st0" d="M55.09,8.93c0.6-0.12,1.54-0.21,2.5-0.21c1.37,0,2.25,0.23,2.91,0.74c0.55,0.39,0.88,1,0.88,1.8
		c0,0.98-0.68,1.85-1.79,2.24v0.03c1.01,0.24,2.19,1.04,2.19,2.56c0,0.88-0.36,1.54-0.9,2.04c-0.74,0.65-1.94,0.95-3.67,0.95
		c-0.94,0-1.67-0.06-2.13-0.12V8.93z M56.46,13.11h1.24c1.45,0,2.3-0.73,2.3-1.71c0-1.2-0.94-1.66-2.33-1.66
		c-0.63,0-0.99,0.05-1.21,0.09V13.11z M56.46,17.99c0.27,0.05,0.66,0.06,1.15,0.06c1.42,0,2.72-0.5,2.72-1.98
		c0-1.39-1.24-1.97-2.74-1.97h-1.13V17.99z"/>
	<path class="st0" d="M64.41,15.57c0.03,1.8,1.23,2.54,2.61,2.54c0.99,0,1.59-0.17,2.11-0.38l0.24,0.95
		c-0.49,0.21-1.32,0.45-2.53,0.45c-2.35,0-3.75-1.48-3.75-3.69s1.35-3.95,3.57-3.95c2.49,0,3.15,2.1,3.15,3.45
		c0,0.27-0.03,0.48-0.05,0.62H64.41z M68.47,14.62c0.02-0.85-0.36-2.16-1.92-2.16c-1.4,0-2.01,1.24-2.13,2.16H68.47z"/>
	<path class="st0" d="M75.74,18.99l-0.11-0.92h-0.05c-0.43,0.58-1.24,1.09-2.33,1.09c-1.54,0-2.33-1.04-2.33-2.1
		c0-1.77,1.64-2.74,4.58-2.72v-0.15c0-0.61-0.17-1.69-1.73-1.69c-0.71,0-1.45,0.21-1.98,0.54l-0.31-0.88
		c0.63-0.39,1.54-0.65,2.5-0.65c2.33,0,2.9,1.53,2.9,3v2.74c0,0.64,0.03,1.26,0.13,1.76H75.74z M75.53,15.26
		c-1.51-0.03-3.23,0.23-3.23,1.65c0,0.86,0.6,1.27,1.31,1.27c0.99,0,1.62-0.61,1.84-1.23c0.05-0.14,0.08-0.29,0.08-0.42V15.26z"/>
	<path class="st0" d="M85.48,16.99c0,0.76,0.02,1.42,0.06,2h-1.23l-0.08-1.2H84.2c-0.36,0.59-1.16,1.36-2.52,1.36
		c-1.2,0-2.63-0.64-2.63-3.21v-4.28h1.38v4.05c0,1.39,0.44,2.33,1.7,2.33c0.93,0,1.57-0.62,1.83-1.21c0.08-0.2,0.13-0.44,0.13-0.68
		v-4.49h1.38V16.99z"/>
	<path class="st0" d="M89.44,9.57v2.1h1.98v1.01h-1.98v3.95c0,0.91,0.27,1.42,1.04,1.42c0.36,0,0.63-0.05,0.8-0.09l0.06,1
		c-0.27,0.11-0.69,0.18-1.23,0.18c-0.65,0-1.16-0.2-1.5-0.56c-0.39-0.39-0.53-1.04-0.53-1.91v-3.99h-1.18v-1.01h1.18V9.91
		L89.44,9.57z"/>
	<path class="st0" d="M94.52,9.61c0.02,0.45-0.33,0.82-0.88,0.82c-0.49,0-0.83-0.36-0.83-0.82c0-0.47,0.36-0.83,0.87-0.83
		C94.19,8.78,94.52,9.14,94.52,9.61z M92.98,18.99v-7.32h1.39v7.32H92.98z"/>
	<path class="st0" d="M96.8,18.99v-6.31h-1.07v-1.01h1.07v-0.35c0-1.03,0.24-1.97,0.88-2.56c0.52-0.48,1.21-0.68,1.86-0.68
		c0.49,0,0.91,0.11,1.18,0.21l-0.19,1.03c-0.2-0.09-0.49-0.17-0.88-0.17c-1.18,0-1.48,1-1.48,2.12v0.39h1.84v1.01h-1.84v6.31H96.8z"
		/>
	<path class="st0" d="M107.63,16.99c0,0.76,0.02,1.42,0.06,2h-1.23l-0.08-1.2h-0.03c-0.36,0.59-1.16,1.36-2.52,1.36
		c-1.2,0-2.63-0.64-2.63-3.21v-4.28h1.38v4.05c0,1.39,0.44,2.33,1.7,2.33c0.93,0,1.57-0.62,1.83-1.21c0.08-0.2,0.13-0.44,0.13-0.68
		v-4.49h1.38V16.99z"/>
	<path class="st0" d="M109.93,8.25h1.39v10.74h-1.39V8.25z"/>
	<path class="st0" d="M56.46,23.92v4.27h5.13v-4.27h1.39v10.2h-1.39v-4.78h-5.13v4.78h-1.37v-10.2H56.46z"/>
	<path class="st0" d="M69.52,34.11l-0.11-0.92h-0.05c-0.42,0.58-1.24,1.09-2.33,1.09c-1.54,0-2.33-1.04-2.33-2.1
		c0-1.77,1.64-2.74,4.58-2.72V29.3c0-0.61-0.17-1.69-1.73-1.69c-0.71,0-1.45,0.21-1.98,0.54l-0.31-0.88
		c0.63-0.39,1.54-0.65,2.5-0.65c2.33,0,2.9,1.53,2.9,3v2.74c0,0.64,0.03,1.26,0.13,1.76H69.52z M69.32,30.38
		c-1.51-0.03-3.23,0.23-3.23,1.65c0,0.86,0.6,1.27,1.31,1.27c0.99,0,1.62-0.61,1.84-1.23c0.05-0.14,0.08-0.29,0.08-0.42V30.38z"/>
	<path class="st0" d="M74.43,24.73c0.02,0.45-0.33,0.82-0.88,0.82c-0.49,0-0.83-0.36-0.83-0.82c0-0.47,0.36-0.83,0.87-0.83
		C74.1,23.9,74.43,24.27,74.43,24.73z M72.89,34.11v-7.32h1.39v7.32H72.89z"/>
	<path class="st0" d="M76.57,29.08c0-0.86-0.02-1.6-0.06-2.28h1.21l0.05,1.44h0.06c0.35-0.98,1.18-1.6,2.11-1.6
		c0.16,0,0.27,0.02,0.39,0.05v1.26c-0.14-0.03-0.28-0.05-0.47-0.05c-0.98,0-1.67,0.71-1.86,1.71c-0.03,0.18-0.06,0.39-0.06,0.62v3.9
		h-1.37V29.08z"/>
</g>
</svg>
