<?xml version="1.0" encoding="utf-8"?>
<!-- Generator: Adobe Illustrator 25.1.0, SVG Export Plug-In . SVG Version: 6.00 Build 0)  -->
<svg version="1.1" id="Слой_1" xmlns="http://www.w3.org/2000/svg" xmlns:xlink="http://www.w3.org/1999/xlink" x="0px" y="0px"
	 viewBox="0 0 49.6 49.6" style="enable-background:new 0 0 49.6 49.6;" xml:space="preserve">
<style type="text/css">
	.st0{fill:#FEB633;}
</style>
<g>
	<path class="st0" d="M0.6,8.7C2.5,8.3,5.6,8,8.7,8c4.4,0,7.3,0.7,9.5,2.4c1.7,1.3,2.8,3.3,2.8,5.9c0,3.2-2.2,6-5.8,7.3v0.1
		c3.3,0.8,7.1,3.4,7.1,8.3c0,2.9-1.2,5-2.9,6.6c-2.4,2.1-6.3,3.1-11.9,3.1c-3.1,0-5.4-0.2-6.9-0.4L0.6,8.7L0.6,8.7z M5,22.3h4
		c4.7,0,7.5-2.4,7.5-5.6c0-3.9-3.1-5.4-7.6-5.4c-2,0-3.2,0.2-3.9,0.3V22.3z M5,38.1c0.9,0.1,2.2,0.2,3.7,0.2c4.6,0,8.9-1.6,8.9-6.4
		c0-4.5-4-6.4-8.9-6.4H5V38.1z"/>
	<path class="st0" d="M27.8,8.3v13.9h16.7V8.3H49v33.1h-4.5V25.9H27.8v15.5h-4.5V8.3H27.8z"/>
</g>
</svg>
